<?xml version="1.0" encoding="UTF-8" standalone="no"?><svg xmlns="http://www.w3.org/2000/svg" xmlns:xlink="http://www.w3.org/1999/xlink" contentStyleType="text/css" height="625px" preserveAspectRatio="none" style="width:600px;height:625px;background:#FFFFFF;" version="1.1" viewBox="0 0 600 625" width="600px" zoomAndPan="magnify"><defs/><g><rect fill="none" height="27.6094" id="_title" style="stroke:none;stroke-width:1.0;" width="212" x="195.5" y="10"/><text fill="#000000" font-family="sans-serif" font-size="14" font-weight="bold" lengthAdjust="spacing" textLength="202" x="200.5" y="29.5332">SD Scan for greenhouse title</text><rect fill="#FFFFFF" height="364.5938" style="stroke:#181818;stroke-width:1.0;" width="10" x="133.5" y="169.9219"/><rect fill="#FFFFFF" height="274.1875" style="stroke:#181818;stroke-width:1.0;" width="10" x="294.5" y="216.625"/><rect fill="#FFFFFF" height="89.0547" style="stroke:#181818;stroke-width:1.0;" width="10" x="437" y="263.3281"/><rect fill="#FFFFFF" height="12" style="stroke:#181818;stroke-width:1.0;" width="10" x="567" y="310.0313"/><rect fill="none" height="77.7266" style="stroke:#000000;stroke-width:1.5;" width="279" x="104" y="402.0859"/><line style="stroke:#181818;stroke-width:0.5;stroke-dasharray:5.0,5.0;" x1="22" x2="22" y1="121.2188" y2="543.5156"/><line style="stroke:#181818;stroke-width:0.5;stroke-dasharray:5.0,5.0;" x1="138" x2="138" y1="121.2188" y2="543.5156"/><line style="stroke:#181818;stroke-width:0.5;stroke-dasharray:5.0,5.0;" x1="299" x2="299" y1="121.2188" y2="543.5156"/><line style="stroke:#181818;stroke-width:0.5;stroke-dasharray:5.0,5.0;" x1="442" x2="442" y1="121.2188" y2="543.5156"/><line style="stroke:#181818;stroke-width:0.5;stroke-dasharray:5.0,5.0;" x1="572" x2="572" y1="121.2188" y2="543.5156"/><text fill="#000000" font-family="sans-serif" font-size="14" lengthAdjust="spacing" textLength="29" x="5" y="118.1426">User</text><ellipse cx="22.5" cy="52.1094" fill="#E2E2F0" rx="8" ry="8" style="stroke:#181818;stroke-width:0.5;"/><path d="M22.5,60.1094 L22.5,87.1094 M9.5,68.1094 L35.5,68.1094 M22.5,87.1094 L9.5,102.1094 M22.5,87.1094 L35.5,102.1094 " fill="none" style="stroke:#181818;stroke-width:0.5;"/><text fill="#000000" font-family="sans-serif" font-size="14" lengthAdjust="spacing" textLength="29" x="5" y="557.0488">User</text><ellipse cx="22.5" cy="568.625" fill="#E2E2F0" rx="8" ry="8" style="stroke:#181818;stroke-width:0.5;"/><path d="M22.5,576.625 L22.5,603.625 M9.5,584.625 L35.5,584.625 M22.5,603.625 L9.5,618.625 M22.5,603.625 L35.5,618.625 " fill="none" style="stroke:#181818;stroke-width:0.5;"/><text fill="#000000" font-family="sans-serif" font-size="14" lengthAdjust="spacing" textLength="24" x="123.5" y="118.1426">app</text><path d="M118,75.6094 L118,99.6094 M118,87.6094 L135,87.6094 " fill="none" style="stroke:#181818;stroke-width:0.5;"/><ellipse cx="147" cy="87.6094" fill="#E2E2F0" rx="12" ry="12" style="stroke:#181818;stroke-width:0.5;"/><text fill="#000000" font-family="sans-serif" font-size="14" lengthAdjust="spacing" textLength="24" x="123.5" y="557.0488">app</text><path d="M118,564.125 L118,588.125 M118,576.125 L135,576.125 " fill="none" style="stroke:#181818;stroke-width:0.5;"/><ellipse cx="147" cy="576.125" fill="#E2E2F0" rx="12" ry="12" style="stroke:#181818;stroke-width:0.5;"/><rect fill="#E2E2F0" height="31.6094" rx="2.5" ry="2.5" style="stroke:#181818;stroke-width:0.5;" width="147" x="226" y="88.6094"/><text fill="#000000" font-family="sans-serif" font-size="14" lengthAdjust="spacing" textLength="133" x="233" y="110.1426">greenHouseManager</text><rect fill="#E2E2F0" height="31.6094" rx="2.5" ry="2.5" style="stroke:#181818;stroke-width:0.5;" width="147" x="226" y="542.5156"/><text fill="#000000" font-family="sans-serif" font-size="14" lengthAdjust="spacing" textLength="133" x="233" y="564.0488">greenHouseManager</text><rect fill="#E2E2F0" height="31.6094" rx="2.5" ry="2.5" style="stroke:#181818;stroke-width:0.5;" width="118" x="383" y="88.6094"/><text fill="#000000" font-family="sans-serif" font-size="14" lengthAdjust="spacing" textLength="104" x="390" y="110.1426">arduinoManager</text><rect fill="#E2E2F0" height="31.6094" rx="2.5" ry="2.5" style="stroke:#181818;stroke-width:0.5;" width="118" x="383" y="542.5156"/><text fill="#000000" font-family="sans-serif" font-size="14" lengthAdjust="spacing" textLength="104" x="390" y="564.0488">arduinoManager</text><text fill="#000000" font-family="sans-serif" font-size="14" lengthAdjust="spacing" textLength="48" x="545" y="118.1426">arduino</text><ellipse cx="572" cy="87.6094" fill="#E2E2F0" rx="12" ry="12" style="stroke:#181818;stroke-width:0.5;"/><line style="stroke:#181818;stroke-width:0.5;" x1="560" x2="584" y1="101.6094" y2="101.6094"/><text fill="#000000" font-family="sans-serif" font-size="14" lengthAdjust="spacing" textLength="48" x="545" y="557.0488">arduino</text><ellipse cx="572" cy="576.125" fill="#E2E2F0" rx="12" ry="12" style="stroke:#181818;stroke-width:0.5;"/><line style="stroke:#181818;stroke-width:0.5;" x1="560" x2="584" y1="590.125" y2="590.125"/><rect fill="#FFFFFF" height="364.5938" style="stroke:#181818;stroke-width:1.0;" width="10" x="133.5" y="169.9219"/><rect fill="#FFFFFF" height="274.1875" style="stroke:#181818;stroke-width:1.0;" width="10" x="294.5" y="216.625"/><rect fill="#FFFFFF" height="89.0547" style="stroke:#181818;stroke-width:1.0;" width="10" x="437" y="263.3281"/><rect fill="#FFFFFF" height="12" style="stroke:#181818;stroke-width:1.0;" width="10" x="567" y="310.0313"/><polygon fill="#181818" points="121.5,165.9219,131.5,169.9219,121.5,173.9219,125.5,169.9219" style="stroke:#181818;stroke-width:1.0;"/><line style="stroke:#181818;stroke-width:1.0;" x1="22.5" x2="127.5" y1="169.9219" y2="169.9219"/><text fill="#000000" font-family="sans-serif" font-size="13" lengthAdjust="spacing" textLength="82" x="29.5" y="148.7139">*Click* search</text><text fill="#000000" font-family="sans-serif" font-size="13" lengthAdjust="spacing" textLength="92" x="29.5" y="165.0654">for greenhouses</text><polygon fill="#181818" points="282.5,212.625,292.5,216.625,282.5,220.625,286.5,216.625" style="stroke:#181818;stroke-width:1.0;"/><line style="stroke:#181818;stroke-width:1.0;" x1="143.5" x2="288.5" y1="216.625" y2="216.625"/><text fill="#000000" font-family="sans-serif" font-size="13" lengthAdjust="spacing" textLength="59" x="150.5" y="195.417">Search for</text><text fill="#000000" font-family="sans-serif" font-size="13" lengthAdjust="spacing" textLength="74" x="150.5" y="211.7686">greenhouses</text><polygon fill="#181818" points="425,259.3281,435,263.3281,425,267.3281,429,263.3281" style="stroke:#181818;stroke-width:1.0;"/><line style="stroke:#181818;stroke-width:1.0;" x1="304.5" x2="431" y1="263.3281" y2="263.3281"/><text fill="#000000" font-family="sans-serif" font-size="13" lengthAdjust="spacing" textLength="59" x="311.5" y="242.1201">Search for</text><text fill="#000000" font-family="sans-serif" font-size="13" lengthAdjust="spacing" textLength="49" x="315.5" y="258.4717">arduinos</text><polygon fill="#181818" points="555,306.0313,565,310.0313,555,314.0313,559,310.0313" style="stroke:#181818;stroke-width:1.0;"/><line style="stroke:#181818;stroke-width:1.0;" x1="447" x2="561" y1="310.0313" y2="310.0313"/><text fill="#000000" font-family="sans-serif" font-size="13" lengthAdjust="spacing" textLength="101" x="454" y="288.8232">Scan for arduinos</text><text fill="#000000" font-family="sans-serif" font-size="13" lengthAdjust="spacing" textLength="63" x="454" y="305.1748">on network</text><polygon fill="#181818" points="458,318.0313,448,322.0313,458,326.0313,454,322.0313" style="stroke:#181818;stroke-width:1.0;"/><line style="stroke:#181818;stroke-width:1.0;stroke-dasharray:2.0,2.0;" x1="452" x2="571" y1="322.0313" y2="322.0313"/><text fill="#000000" font-family="sans-serif" font-size="13" lengthAdjust="spacing" textLength="46" x="464" y="336.5264">Send ID</text><polygon fill="#181818" points="315.5,348.3828,305.5,352.3828,315.5,356.3828,311.5,352.3828" style="stroke:#181818;stroke-width:1.0;"/><line style="stroke:#181818;stroke-width:1.0;stroke-dasharray:2.0,2.0;" x1="309.5" x2="441" y1="352.3828" y2="352.3828"/><text fill="#000000" font-family="sans-serif" font-size="13" lengthAdjust="spacing" textLength="73" x="321.5" y="366.8779">Return list of</text><text fill="#000000" font-family="sans-serif" font-size="13" lengthAdjust="spacing" textLength="102" x="321.5" y="383.2295">available arduinos</text><path d="M104,402.0859 L165,402.0859 L165,410.4375 L155,420.4375 L104,420.4375 L104,402.0859 " fill="#EEEEEE" style="stroke:#000000;stroke-width:1.5;"/><rect fill="none" height="77.7266" style="stroke:#000000;stroke-width:1.5;" width="279" x="104" y="402.0859"/><text fill="#000000" font-family="sans-serif" font-size="13" font-weight="bold" lengthAdjust="spacing" textLength="16" x="119" y="416.5811">alt</text><text fill="#000000" font-family="sans-serif" font-size="11" font-weight="bold" lengthAdjust="spacing" textLength="45" x="180" y="415.5049">[no new</text><text fill="#000000" font-family="sans-serif" font-size="11" font-weight="bold" lengthAdjust="spacing" textLength="79" x="180" y="429.3408">greenhouses]</text><polygon fill="#181818" points="154.5,433.1094,144.5,437.1094,154.5,441.1094,150.5,437.1094" style="stroke:#181818;stroke-width:1.0;"/><line style="stroke:#181818;stroke-width:1.0;stroke-dasharray:2.0,2.0;" x1="148.5" x2="293.5" y1="437.1094" y2="437.1094"/><text fill="#000000" font-family="sans-serif" font-size="13" lengthAdjust="spacing" textLength="77" x="160.5" y="451.6045">Show no new</text><text fill="#000000" font-family="sans-serif" font-size="13" lengthAdjust="spacing" textLength="120" x="160.5" y="467.9561">greenhouses avilable</text><polygon fill="#181818" points="154.5,486.8125,144.5,490.8125,154.5,494.8125,150.5,490.8125" style="stroke:#181818;stroke-width:1.0;"/><line style="stroke:#181818;stroke-width:1.0;stroke-dasharray:2.0,2.0;" x1="148.5" x2="298.5" y1="490.8125" y2="490.8125"/><text fill="#000000" font-family="sans-serif" font-size="13" lengthAdjust="spacing" textLength="67" x="160.5" y="505.3076">Show list of</text><text fill="#000000" font-family="sans-serif" font-size="13" lengthAdjust="spacing" textLength="127" x="160.5" y="521.6592">available greenhouses</text><!--MD5=[1c42bfc99f8cf0cb40bd97e482615c0b]
@startuml
title SD Scan for greenhouse title
    skinparam responseMessageBelowArrow true
    actor User
    boundary app
    participant greenHouseManager
    participant arduinoManager
    entity arduino

    User -> app ++: *Click* search \nfor greenhouses
    app -> greenHouseManager ++: Search for\ngreenhouses
    greenHouseManager -> arduinoManager ++: Search for\n arduinos
    arduinoManager -> arduino ++: Scan for arduinos\non network
    arduino - -> arduinoManager - -: Send ID
    arduinoManager - -> greenHouseManager - -: Return list of \navailable arduinos
    alt no new \ngreenhouses
        greenHouseManager - -> app : Show no new \ngreenhouses avilable
    end
    greenHouseManager - -> app - -: Show list of \navailable greenhouses
@enduml

PlantUML version 1.2022.7(Mon Aug 22 19:01:30 CEST 2022)
(GPL source distribution)
Java Runtime: OpenJDK Runtime Environment
JVM: OpenJDK 64-Bit Server VM
Default Encoding: Cp1252
Language: da
Country: DK
--></g></svg>