<?xml version="1.0" encoding="UTF-8" standalone="no"?><svg xmlns="http://www.w3.org/2000/svg" xmlns:xlink="http://www.w3.org/1999/xlink" contentStyleType="text/css" height="335px" preserveAspectRatio="none" style="width:344px;height:335px;background:#FFFFFF;" version="1.1" viewBox="0 0 344 335" width="344px" zoomAndPan="magnify"><defs/><g><ellipse cx="260.5" cy="32" fill="#222222" rx="10" ry="10" style="stroke:none;stroke-width:1.0;"/><g id="Idle"><rect fill="#F1F1F1" height="50" rx="12.5" ry="12.5" style="stroke:#181818;stroke-width:0.5;" width="50" x="106.5" y="135"/><line style="stroke:#181818;stroke-width:0.5;" x1="106.5" x2="156.5" y1="162.6094" y2="162.6094"/><text fill="#000000" font-family="sans-serif" font-size="14" lengthAdjust="spacing" textLength="22" x="120.5" y="154.5332">Idle</text></g><g id="WindowToggle"><rect fill="#F1F1F1" height="50" rx="12.5" ry="12.5" style="stroke:#181818;stroke-width:0.5;" width="113" x="7" y="279"/><line style="stroke:#181818;stroke-width:0.5;" x1="7" x2="120" y1="306.6094" y2="306.6094"/><text fill="#000000" font-family="sans-serif" font-size="14" lengthAdjust="spacing" textLength="93" x="17" y="298.5332">WindowToggle</text></g><g id="WaterPlant"><rect fill="#F1F1F1" height="50" rx="12.5" ry="12.5" style="stroke:#181818;stroke-width:0.5;" width="90" x="28.5" y="7"/><line style="stroke:#181818;stroke-width:0.5;" x1="28.5" x2="118.5" y1="34.6094" y2="34.6094"/><text fill="#000000" font-family="sans-serif" font-size="14" lengthAdjust="spacing" textLength="70" x="38.5" y="26.5332">WaterPlant</text></g><ellipse cx="189.5" cy="304" fill="none" rx="10" ry="10" style="stroke:#222222;stroke-width:1.0;"/><ellipse cx="190" cy="304.5" fill="#222222" rx="6" ry="6" style="stroke:none;stroke-width:1.0;"/><!--MD5=[38f1f8b7f214ff6bc6d4b705f682283d]
link *start to Idle--><g id="link_*start_Idle"><path d="M257.3,41.91 C251.7,56.51 238.94,85.84 220.5,105 C203.63,122.53 179.9,136.55 161.18,145.91 " fill="none" id="*start-to-Idle" style="stroke:#181818;stroke-width:1.0;"/><polygon fill="#181818" points="156.54,148.19,166.3823,147.8306,161.0319,145.9939,162.8686,140.6436,156.54,148.19" style="stroke:#181818;stroke-width:1.0;"/></g><!--MD5=[4f7116d012c72546cb0d8b5f1cb34cc3]
link Idle to Idle--><g id="link_Idle_Idle"><path d="M156.78,149.17 C174.27,145.89 191.5,149.5 191.5,160 C191.5,169.43 177.59,173.31 162.08,171.61 " fill="none" id="Idle-to-Idle" style="stroke:#181818;stroke-width:1.0;"/><polygon fill="#181818" points="156.78,170.83,165.1005,176.0997,161.7266,171.5591,166.2671,168.1852,156.78,170.83" style="stroke:#181818;stroke-width:1.0;"/><text fill="#000000" font-family="sans-serif" font-size="13" lengthAdjust="spacing" textLength="134" x="197.5" y="165.4951">Check for app requests</text></g><!--MD5=[37736f49a8b099809f7e43c18ad11330]
link Idle to WindowToggle--><g id="link_Idle_WindowToggle"><path d="M106.33,167.35 C83.33,174.65 50.66,189.08 35.5,215 C24.76,233.37 32.68,256.35 42.81,274.22 " fill="none" id="Idle-to-WindowToggle" style="stroke:#181818;stroke-width:1.0;"/><polygon fill="#181818" points="45.42,278.65,44.2961,268.8655,42.8812,274.3425,37.4041,272.9276,45.42,278.65" style="stroke:#181818;stroke-width:1.0;"/><text fill="#000000" font-family="sans-serif" font-size="13" lengthAdjust="spacing" textLength="68" x="36.5" y="229.4951">Open/Close</text><text fill="#000000" font-family="sans-serif" font-size="13" lengthAdjust="spacing" textLength="42" x="49.5" y="245.8467">window</text></g><!--MD5=[2ca7a8825e50222ad6444f8798a62282]
link WindowToggle to Idle--><g id="link_WindowToggle_Idle"><path d="M88.13,278.95 C95.94,270.16 103.98,259.73 109.5,249 C118.9,230.73 124.44,208.22 127.6,190.54 " fill="none" id="WindowToggle-to-Idle" style="stroke:#181818;stroke-width:1.0;"/><polygon fill="#181818" points="128.51,185.21,123.0501,193.4069,127.6672,190.1385,130.9357,194.7555,128.51,185.21" style="stroke:#181818;stroke-width:1.0;"/></g><!--MD5=[927a1d68a4a9e3488c02982961c147a9]
link Idle to WaterPlant--><g id="link_Idle_WaterPlant"><path d="M120.35,134.78 C110.77,113.97 96.94,83.93 86.79,61.87 " fill="none" id="Idle-to-WaterPlant" style="stroke:#181818;stroke-width:1.0;"/><polygon fill="#181818" points="84.68,57.29,84.8256,67.1378,86.778,61.8285,92.0872,63.781,84.68,57.29" style="stroke:#181818;stroke-width:1.0;"/><text fill="#000000" font-family="sans-serif" font-size="13" lengthAdjust="spacing" textLength="104" x="107.5" y="101.4951">Plant needs water</text></g><!--MD5=[7d5a7cecc8a61c11011adcf207b3e420]
link WaterPlant to Idle--><g id="link_WaterPlant_Idle"><path d="M79.04,57.33 C82.75,71.6 88.28,89.76 95.5,105 C99.61,113.68 104.97,122.56 110.3,130.55 " fill="none" id="WaterPlant-to-Idle" style="stroke:#181818;stroke-width:1.0;"/><polygon fill="#181818" points="113.25,134.89,111.5244,125.1935,110.4502,130.7474,104.8963,129.6732,113.25,134.89" style="stroke:#181818;stroke-width:1.0;"/></g><!--MD5=[9afb9056d123e700f1a927d06b85b1b8]
reverse link WaterPlant to WaterPlant--><g id="link_WaterPlant_WaterPlant"><path d="M123.94,20 C140.4,20.07 153.5,24.07 153.5,32 C153.5,40.75 137.55,44.71 118.73,43.89 " fill="none" id="WaterPlant-backto-WaterPlant" style="stroke:#181818;stroke-width:1.0;"/><polygon fill="#181818" points="118.73,20.11,127.8084,23.9287,123.729,20.0097,127.648,15.9303,118.73,20.11" style="stroke:#181818;stroke-width:1.0;"/><text fill="#000000" font-family="sans-serif" font-size="13" lengthAdjust="spacing" textLength="67" x="159.5" y="37.4951">Water plant</text></g><!--MD5=[2206b9d56cd99494335602d438874a77]
link Idle to *end--><g id="link_Idle_*end"><path d="M141.34,185.09 C153.65,215.23 174.3,265.78 184.07,289.7 " fill="none" id="Idle-to-*end" style="stroke:#181818;stroke-width:1.0;"/><polygon fill="#181818" points="185.98,294.38,186.2887,284.536,184.0935,289.7495,178.88,287.5544,185.98,294.38" style="stroke:#181818;stroke-width:1.0;"/><text fill="#000000" font-family="sans-serif" font-size="13" lengthAdjust="spacing" textLength="57" x="168.5" y="237.4951">Shutdown</text></g><!--MD5=[6ba8d4ee6fe662fb1e8d1730c999f55d]
@startuml
    [*] - -> Idle
    Idle - -> Idle : Check for app requests
    Idle - -> WindowToggle : Open/Close\nwindow
    WindowToggle - -> Idle 
    Idle - -> WaterPlant : Plant needs water
    WaterPlant -left-> WaterPlant : Water plant
    WaterPlant - -> Idle
    Idle - -> [*] : Shutdown

@enduml

PlantUML version 1.2022.7(Mon Aug 22 19:01:30 CEST 2022)
(GPL source distribution)
Java Runtime: OpenJDK Runtime Environment
JVM: OpenJDK 64-Bit Server VM
Default Encoding: Cp1252
Language: da
Country: DK
--></g></svg>